{
  "accessors": [
    {
      "bufferView": 2,
      "componentType": 5126,
      "count": 65532,
      "max": [
        0.0013024430954828858,
        3.9418000596924685e-06,
        1.8660997739061713e-05
      ],
      "min": [
        3.391369682503864e-05,
        -0.0006317417719401419,
        -0.0011949503095820546
      ],
      "type": "VEC3"
    },
    {
      "bufferView": 2,
      "byteOffset": 786384,
      "componentType": 5126,
      "count": 65532,
      "max": [
        0.9999932050704956,
        0.9999992251396179,
        0.9999988675117493
      ],
      "min": [
        -0.9999499320983887,
        -0.9999999403953552,
        -0.9999904036521912
      ],
      "type": "VEC3"
    },
    {
      "bufferView": 1,
      "componentType": 5126,
      "count": 65532,
      "max": [
        0.9967529773712158,
        0.9973049759864807
      ],
      "min": [
        0.0,
        0.006521999835968018
      ],
      "type": "VEC2"
    },
    {
      "bufferView": 0,
      "componentType": 5125,
      "count": 363075,
      "type": "SCALAR"
    },
    {
      "bufferView": 2,
      "byteOffset": 1572768,
      "componentType": 5126,
      "count": 65532,
      "max": [
        0.0013099927455186844,
        2.4878997919586254e-06,
        1.746889938658569e-05
      ],
      "min": [
        6.155169830890372e-05,
        -0.0008114388328976929,
        -0.0016041394555941224
      ],
      "type": "VEC3"
    },
    {
      "bufferView": 2,
      "byteOffset": 2359152,
      "componentType": 5126,
      "count": 65532,
      "max": [
        0.9999951124191284,
        0.9999545812606812,
        1.0
      ],
      "min": [
        -0.9999996423721313,
        -0.9999999403953552,
        -0.9999971389770508
      ],
      "type": "VEC3"
    },
    {
      "bufferView": 1,
      "byteOffset": 524256,
      "componentType": 5126,
      "count": 65532,
      "max": [
        1.0,
        0.999567985534668
      ],
      "min": [
        0.0,
        0.0027289986610412598
      ],
      "type": "VEC2"
    },
    {
      "bufferView": 0,
      "byteOffset": 1452300,
      "componentType": 5125,
      "count": 336678,
      "type": "SCALAR"
    },
    {
      "bufferView": 2,
      "byteOffset": 3145536,
      "componentType": 5126,
      "count": 15264,
      "max": [
        0.00130949926096946,
        -1.90403989108745e-05,
        1.1566099601623137e-05
      ],
      "min": [
        5.49315991520416e-05,
        -0.0008096485398709774,
        -0.001602916861884296
      ],
      "type": "VEC3"
    },
    {
      "bufferView": 2,
      "byteOffset": 3328704,
      "componentType": 5126,
      "count": 15264,
      "max": [
        0.9999960660934448,
        0.9999005198478699,
        0.9999988079071045
      ],
      "min": [
        -0.9999979734420776,
        -0.9999983310699463,
        -0.9999933838844299
      ],
      "type": "VEC3"
    },
    {
      "bufferView": 1,
      "byteOffset": 1048512,
      "componentType": 5126,
      "count": 15264,
      "max": [
        1.0,
        1.0
      ],
      "min": [
        0.0,
        0.006067991256713867
      ],
      "type": "VEC2"
    },
    {
      "bufferView": 0,
      "byteOffset": 2799012,
      "componentType": 5125,
      "count": 50247,
      "type": "SCALAR"
    }
  ],
  "asset": {
    "extras": {
      "author": "omar_andres_delgado_pinos (https://sketchfab.com/omar_andres_delgado_pinos)",
      "license": "CC-BY-4.0 (http://creativecommons.org/licenses/by/4.0/)",
      "source": "https://sketchfab.com/3d-models/building-37-padre-aguirre-9-66-02efdf1542b14f5c8cfad5435d83ffe1",
      "title": "Building  37. Padre Aguirre 9 - 66"
    },
    "generator": "Sketchfab-12.65.0",
    "version": "2.0"
  },
  "bufferViews": [
    {
      "buffer": 0,
      "byteLength": 3000000,
      "name": "floatBufferViews",
      "target": 34963
    },
    {
      "buffer": 0,
      "byteLength": 1170624,
      "byteOffset": 3000000,
      "byteStride": 8,
      "name": "floatBufferViews",
      "target": 34962
    },
    {
      "buffer": 0,
      "byteLength": 3511872,
      "byteOffset": 4170624,
      "byteStride": 12,
      "name": "floatBufferViews",
      "target": 34962
    }
  ],
  "buffers": [
    {
      "byteLength": 7682496,
      "uri": "scene.bin"
    }
  ],
  "images": [
    {
      "uri": "textures/Padre_Aguirre_2_baseColor.png"
    }
  ],
  "materials": [
    {
      "alphaMode": "BLEND",
      "doubleSided": true,
      "name": "Padre_Aguirre_2",
      "pbrMetallicRoughness": {
        "baseColorTexture": {
          "index": 0
        },
        "metallicFactor": 0.0
      }
    }
  ],
  "meshes": [
    {
      "name": "Object_0",
      "primitives": [
        {
          "attributes": {
            "NORMAL": 1,
            "POSITION": 0,
            "TEXCOORD_0": 2
          },
          "indices": 3,
          "material": 0,
          "mode": 4
        }
      ]
    },
    {
      "name": "Object_1",
      "primitives": [
        {
          "attributes": {
            "NORMAL": 5,
            "POSITION": 4,
            "TEXCOORD_0": 6
          },
          "indices": 7,
          "material": 0,
          "mode": 4
        }
      ]
    },
    {
      "name": "Object_2",
      "primitives": [
        {
          "attributes": {
            "NORMAL": 9,
            "POSITION": 8,
            "TEXCOORD_0": 10
          },
          "indices": 11,
          "material": 0,
          "mode": 4
        }
      ]
    }
  ],
  "nodes": [
    {
      "children": [
        1
      ],
      "matrix": [
        -0.0337371305830092,
        -0.0003568296254591523,
        1.1233636911596392,
        0.0,
        1.123363624171752,
        -0.0005919207373322471,
        0.03373694008620487,
        0.0,
        0.0005809424431326496,
        1.1238700525992655,
        0.00037443746357910716,
        0.0,
        -0.004851431120187044,
        0.007312140893191103,
        -0.015824979171156883,
        1.0
      ],
      "name": "Sketchfab_model"
    },
    {
      "children": [
        2
      ],
      "name": "root"
    },
    {
      "children": [
        3
      ],
      "matrix": [
        1.0,
        0.0,
        0.0,
        0.0,
        0.0,
        2.220446049250313e-16,
        1.0,
        0.0,
        0.0,
        -1.0,
        2.220446049250313e-16,
        0.0,
        0.0,
        0.0,
        0.0,
        1.0
      ],
      "name": "GLTF_SceneRootNode"
    },
    {
      "children": [
        4
      ],
      "matrix": [
        64.84230252109555,
        1.0637936017246958e-07,
        -4.534216267638821,
        0.0,
        -0.07913309426211984,
        64.99076384762284,
        -1.1316542531331242,
        0.0,
        4.533525683121586,
        1.1344172464076667,
        64.83242673069182,
        0.0,
        0.08323538303375244,
        -0.060439687222242355,
        0.03276193141937256,
        1.0
      ],
      "name": "Padre Aguirre 1_50_1"
    },
    {
      "children": [
        5
      ],
      "name": "Padre_Aguirre_Scene_Replacement_Parent_2"
    },
    {
      "children": [
        6
      ],
      "matrix": [
        65.42008764380253,
        0.0,
        3.7592420189625937,
        0.0,
        -0.0,
        65.52800750732422,
        0.0,
        0.0,
        -3.7592420189625937,
        -0.0,
        65.42008764380253,
        0.0,
        -0.05077490583062172,
        -2.9802318834981634e-08,
        0.10067709535360336,
        1.0
      ],
      "name": "Padre_Aguirre_Scene_Replacement_3"
    },
    {
      "children": [
        7,
        8,
        9
      ],
      "matrix": [
        1.8807610273361062,
        1.644212892428665e-07,
        1.6442138703739795e-07,
        0.0,
        1.6442135931803844e-07,
        3.1707261294820126e-07,
        -1.8807610273360869,
        0.0,
        -1.644213169622378e-07,
        1.8807610273360869,
        3.1707259854055834e-07,
        0.0,
        -0.000591830350458622,
        0.0030170029494911432,
        -0.002318860962986946,
        1.0
      ],
      "name": "model_2_primitive_4"
    },
    {
      "mesh": 0,
      "name": "Object_7"
    },
    {
      "mesh": 1,
      "name": "Object_8"
    },
    {
      "mesh": 2,
      "name": "Object_9"
    }
  ],
  "samplers": [
    {
      "magFilter": 9729,
      "minFilter": 9987,
      "wrapS": 10497,
      "wrapT": 10497
    }
  ],
  "scene": 0,
  "scenes": [
    {
      "name": "Sketchfab_Scene",
      "nodes": [
        0
      ]
    }
  ],
  "textures": [
    {
      "sampler": 0,
      "source": 0
    }
  ]
}
