{
  "accessors": [
    {
      "bufferView": 2,
      "componentType": 5126,
      "count": 65532,
      "max": [
        8.841277122497559,
        -0.12007694691419601,
        8.837275505065918
      ],
      "min": [
        -10.443249702453613,
        -7.259252548217773,
        -4.140571117401123
      ],
      "type": "VEC3"
    },
    {
      "bufferView": 2,
      "byteOffset": 786384,
      "componentType": 5126,
      "count": 65532,
      "max": [
        0.999998152256012,
        0.9999875426292419,
        0.9998518228530884
      ],
      "min": [
        -0.9999983906745911,
        -0.9999996423721313,
        -0.9999998807907104
      ],
      "type": "VEC3"
    },
    {
      "bufferView": 1,
      "componentType": 5126,
      "count": 65532,
      "max": [
        0.9997529983520508,
        0.9997559785842896
      ],
      "min": [
        0.00024399999529123306,
        0.0001320000010309741
      ],
      "type": "VEC2"
    },
    {
      "bufferView": 0,
      "componentType": 5125,
      "count": 183492,
      "type": "SCALAR"
    },
    {
      "bufferView": 2,
      "byteOffset": 1572768,
      "componentType": 5126,
      "count": 65532,
      "max": [
        8.855653762817383,
        -0.18756866455078125,
        6.115497589111328
      ],
      "min": [
        -10.422503471374512,
        -7.330310344696045,
        -4.142005920410156
      ],
      "type": "VEC3"
    },
    {
      "bufferView": 2,
      "byteOffset": 2359152,
      "componentType": 5126,
      "count": 65532,
      "max": [
        0.9999986886978149,
        0.9999975562095642,
        0.9997474551200867
      ],
      "min": [
        -0.9999952912330627,
        -0.9999974370002747,
        -0.9999987483024597
      ],
      "type": "VEC3"
    },
    {
      "bufferView": 1,
      "byteOffset": 524256,
      "componentType": 5126,
      "count": 65532,
      "max": [
        0.9997550249099731,
        0.9792479872703552
      ],
      "min": [
        0.00024399999529123306,
        0.00018099999579135329
      ],
      "type": "VEC2"
    },
    {
      "bufferView": 0,
      "byteOffset": 733968,
      "componentType": 5125,
      "count": 167358,
      "type": "SCALAR"
    },
    {
      "bufferView": 2,
      "byteOffset": 3145536,
      "componentType": 5126,
      "count": 4799,
      "max": [
        -0.16022127866744995,
        -0.21494978666305542,
        1.25920569896698
      ],
      "min": [
        -9.201776504516602,
        -6.033353328704834,
        -4.121676921844482
      ],
      "type": "VEC3"
    },
    {
      "bufferView": 2,
      "byteOffset": 3203124,
      "componentType": 5126,
      "count": 4799,
      "max": [
        0.9996674656867981,
        0.9989354610443115,
        0.9934422373771667
      ],
      "min": [
        -0.9998642802238464,
        -0.9999937415122986,
        -0.9999868869781494
      ],
      "type": "VEC3"
    },
    {
      "bufferView": 1,
      "byteOffset": 1048512,
      "componentType": 5126,
      "count": 4799,
      "max": [
        0.9993399977684021,
        0.9463009834289551
      ],
      "min": [
        0.00024399999529123306,
        0.00033099998836405575
      ],
      "type": "VEC2"
    },
    {
      "bufferView": 0,
      "byteOffset": 1403400,
      "componentType": 5125,
      "count": 8700,
      "type": "SCALAR"
    }
  ],
  "asset": {
    "extras": {
      "author": "masanaga (https://sketchfab.com/tasklong)",
      "license": "CC-BY-NC-4.0 (http://creativecommons.org/licenses/by-nc/4.0/)",
      "source": "https://sketchfab.com/3d-models/japanese-apartment-ccbfe37b66cc4a37bc96b7e406e53771",
      "title": "Japanese Apartment / 亀谷荘"
    },
    "generator": "Sketchfab-12.66.0",
    "version": "2.0"
  },
  "bufferViews": [
    {
      "buffer": 0,
      "byteLength": 1438200,
      "name": "floatBufferViews",
      "target": 34963
    },
    {
      "buffer": 0,
      "byteLength": 1086904,
      "byteOffset": 1438200,
      "byteStride": 8,
      "name": "floatBufferViews",
      "target": 34962
    },
    {
      "buffer": 0,
      "byteLength": 3260712,
      "byteOffset": 2525104,
      "byteStride": 12,
      "name": "floatBufferViews",
      "target": 34962
    }
  ],
  "buffers": [
    {
      "byteLength": 5785816,
      "uri": "scene.bin"
    }
  ],
  "extensionsUsed": [
    "KHR_materials_unlit"
  ],
  "images": [
    {
      "uri": "textures/kirakusou_Model_10_baseColor.jpeg"
    }
  ],
  "materials": [
    {
      "doubleSided": true,
      "extensions": {
        "KHR_materials_unlit": {}
      },
      "name": "kirakusou_Model_10",
      "pbrMetallicRoughness": {
        "baseColorTexture": {
          "index": 0
        },
        "metallicFactor": 0.0
      }
    }
  ],
  "meshes": [
    {
      "name": "Object_0",
      "primitives": [
        {
          "attributes": {
            "NORMAL": 1,
            "POSITION": 0,
            "TEXCOORD_0": 2
          },
          "indices": 3,
          "material": 0,
          "mode": 4
        }
      ]
    },
    {
      "name": "Object_1",
      "primitives": [
        {
          "attributes": {
            "NORMAL": 5,
            "POSITION": 4,
            "TEXCOORD_0": 6
          },
          "indices": 7,
          "material": 0,
          "mode": 4
        }
      ]
    },
    {
      "name": "Object_2",
      "primitives": [
        {
          "attributes": {
            "NORMAL": 9,
            "POSITION": 8,
            "TEXCOORD_0": 10
          },
          "indices": 11,
          "material": 0,
          "mode": 4
        }
      ]
    }
  ],
  "nodes": [
    {
      "children": [
        1
      ],
      "matrix": [
        1.1111111640930176,
        -1.7868029995988797e-16,
        1.7868029995988787e-16,
        0.0,
        -1.7868029995988792e-16,
        -1.1111111640930176,
        -4.934324789176514e-16,
        0.0,
        1.7868029995988792e-16,
        4.934324789176514e-16,
        -1.1111111640930176,
        0.0,
        -8.881784197001252e-16,
        -1.3775608539581312,
        6.072811603546143,
        1.0
      ],
      "name": "Sketchfab_model"
    },
    {
      "children": [
        2,
        3,
        4
      ],
      "name": "kirakusou_Model_10.obj.cleaner.materialmerger.gles"
    },
    {
      "mesh": 0,
      "name": "Object_2"
    },
    {
      "mesh": 1,
      "name": "Object_3"
    },
    {
      "mesh": 2,
      "name": "Object_4"
    }
  ],
  "samplers": [
    {
      "magFilter": 9729,
      "minFilter": 9987,
      "wrapS": 10497,
      "wrapT": 10497
    }
  ],
  "scene": 0,
  "scenes": [
    {
      "name": "Sketchfab_Scene",
      "nodes": [
        0
      ]
    }
  ],
  "textures": [
    {
      "sampler": 0,
      "source": 0
    }
  ]
}
