{
  "accessors": [
    {
      "bufferView": 2,
      "componentType": 5126,
      "count": 65532,
      "max": [
        4.165247440338135,
        -6.499194622039795,
        9.571049690246582
      ],
      "min": [
        -8.391623497009277,
        -17.197662353515625,
        1.7575029134750366
      ],
      "type": "VEC3"
    },
    {
      "bufferView": 2,
      "byteOffset": 786384,
      "componentType": 5126,
      "count": 65532,
      "max": [
        0.9999068975448608,
        0.9999146461486816,
        0.999862015247345
      ],
      "min": [
        -0.9999909996986389,
        -0.9999622106552124,
        -0.9999884963035583
      ],
      "type": "VEC3"
    },
    {
      "bufferView": 1,
      "componentType": 5126,
      "count": 65532,
      "max": [
        0.9745100140571594,
        0.9571729898452759
      ],
      "min": [
        0.005423000082373619,
        0.024322999641299248
      ],
      "type": "VEC2"
    },
    {
      "bufferView": 0,
      "componentType": 5125,
      "count": 339258,
      "type": "SCALAR"
    },
    {
      "bufferView": 2,
      "byteOffset": 1572768,
      "componentType": 5126,
      "count": 65532,
      "max": [
        4.143430709838867,
        -9.114891052246094,
        9.592741012573242
      ],
      "min": [
        -8.391623497009277,
        -17.152637481689453,
        1.704633116722107
      ],
      "type": "VEC3"
    },
    {
      "bufferView": 2,
      "byteOffset": 2359152,
      "componentType": 5126,
      "count": 65532,
      "max": [
        0.9999929070472717,
        0.9999813437461853,
        0.9997034668922424
      ],
      "min": [
        -0.9998564720153809,
        -0.9999858736991882,
        -0.9999922513961792
      ],
      "type": "VEC3"
    },
    {
      "bufferView": 1,
      "byteOffset": 524256,
      "componentType": 5126,
      "count": 65532,
      "max": [
        0.9759569764137268,
        1.0
      ],
      "min": [
        0.00019299999985378236,
        0.0
      ],
      "type": "VEC2"
    },
    {
      "bufferView": 0,
      "byteOffset": 1357032,
      "componentType": 5125,
      "count": 332019,
      "type": "SCALAR"
    },
    {
      "bufferView": 2,
      "byteOffset": 3145536,
      "componentType": 5126,
      "count": 28000,
      "max": [
        4.0245161056518555,
        -7.745848655700684,
        6.834287643432617
      ],
      "min": [
        -7.0134501457214355,
        -13.365108489990234,
        1.7920899391174316
      ],
      "type": "VEC3"
    },
    {
      "bufferView": 2,
      "byteOffset": 3481536,
      "componentType": 5126,
      "count": 28000,
      "max": [
        0.99994957447052,
        0.9989662170410156,
        0.9969087839126587
      ],
      "min": [
        -0.9998722672462463,
        -0.999904990196228,
        -0.9999381303787231
      ],
      "type": "VEC3"
    },
    {
      "bufferView": 1,
      "byteOffset": 1048512,
      "componentType": 5126,
      "count": 28000,
      "max": [
        0.9763249754905701,
        0.9990860223770142
      ],
      "min": [
        0.029534000903367996,
        0.027022000402212143
      ],
      "type": "VEC2"
    },
    {
      "bufferView": 0,
      "byteOffset": 2685108,
      "componentType": 5125,
      "count": 124911,
      "type": "SCALAR"
    },
    {
      "bufferView": 2,
      "byteOffset": 3817536,
      "componentType": 5126,
      "count": 65532,
      "max": [
        4.023996353149414,
        -4.357077121734619,
        10.291362762451172
      ],
      "min": [
        -8.386412620544434,
        -20.58575439453125,
        -1.4842069149017334
      ],
      "type": "VEC3"
    },
    {
      "bufferView": 2,
      "byteOffset": 4603920,
      "componentType": 5126,
      "count": 65532,
      "max": [
        0.9999873638153076,
        0.9999045133590698,
        0.9999083876609802
      ],
      "min": [
        -0.9998762607574463,
        -0.9999725222587585,
        -0.9999970197677612
      ],
      "type": "VEC3"
    },
    {
      "bufferView": 1,
      "byteOffset": 1272512,
      "componentType": 5126,
      "count": 65532,
      "max": [
        1.999884009361267,
        0.9744700193405151
      ],
      "min": [
        1.0,
        0.0005000000237487257
      ],
      "type": "VEC2"
    },
    {
      "bufferView": 0,
      "byteOffset": 3184752,
      "componentType": 5125,
      "count": 326031,
      "type": "SCALAR"
    },
    {
      "bufferView": 2,
      "byteOffset": 5390304,
      "componentType": 5126,
      "count": 65532,
      "max": [
        3.6502907276153564,
        -12.2783203125,
        10.291362762451172
      ],
      "min": [
        -8.363515853881836,
        -20.513105392456055,
        1.43745756149292
      ],
      "type": "VEC3"
    },
    {
      "bufferView": 2,
      "byteOffset": 6176688,
      "componentType": 5126,
      "count": 65532,
      "max": [
        0.9999873638153076,
        0.999823808670044,
        0.9999083876609802
      ],
      "min": [
        -0.9999838471412659,
        -0.9999961853027344,
        -0.9999539256095886
      ],
      "type": "VEC3"
    },
    {
      "bufferView": 1,
      "byteOffset": 1796768,
      "componentType": 5126,
      "count": 65532,
      "max": [
        2.0,
        0.968442976474762
      ],
      "min": [
        1.0114580392837524,
        0.00035700001171790063
      ],
      "type": "VEC2"
    },
    {
      "bufferView": 0,
      "byteOffset": 4488876,
      "componentType": 5125,
      "count": 310716,
      "type": "SCALAR"
    },
    {
      "bufferView": 2,
      "byteOffset": 6963072,
      "componentType": 5126,
      "count": 40723,
      "max": [
        3.9792957305908203,
        -12.662165641784668,
        7.3386054039001465
      ],
      "min": [
        -7.076434135437012,
        -17.773210525512695,
        0.782295823097229
      ],
      "type": "VEC3"
    },
    {
      "bufferView": 2,
      "byteOffset": 7451748,
      "componentType": 5126,
      "count": 40723,
      "max": [
        0.9999818205833435,
        0.9999985098838806,
        0.9999682307243347
      ],
      "min": [
        -0.9999966621398926,
        -0.9999852776527405,
        -0.999988317489624
      ],
      "type": "VEC3"
    },
    {
      "bufferView": 1,
      "byteOffset": 2321024,
      "componentType": 5126,
      "count": 40723,
      "max": [
        1.9933619499206543,
        0.9148579835891724
      ],
      "min": [
        1.002079963684082,
        0.0
      ],
      "type": "VEC2"
    },
    {
      "bufferView": 0,
      "byteOffset": 5731740,
      "componentType": 5125,
      "count": 182892,
      "type": "SCALAR"
    },
    {
      "bufferView": 2,
      "byteOffset": 7940424,
      "componentType": 5126,
      "count": 65532,
      "max": [
        1.1869022846221924,
        -4.191458702087402,
        9.703187942504883
      ],
      "min": [
        -8.436887741088867,
        -18.9560489654541,
        -1.83243727684021
      ],
      "type": "VEC3"
    },
    {
      "bufferView": 2,
      "byteOffset": 8726808,
      "componentType": 5126,
      "count": 65532,
      "max": [
        0.9999995231628418,
        0.9994277358055115,
        0.9999967813491821
      ],
      "min": [
        -0.9999971389770508,
        -0.9999618530273438,
        -0.9999580979347229
      ],
      "type": "VEC3"
    },
    {
      "bufferView": 1,
      "byteOffset": 2646808,
      "componentType": 5126,
      "count": 65532,
      "max": [
        2.9999020099639893,
        0.9671090245246887
      ],
      "min": [
        2.0,
        0.0022060000337660313
      ],
      "type": "VEC2"
    },
    {
      "bufferView": 0,
      "byteOffset": 6463308,
      "componentType": 5125,
      "count": 356142,
      "type": "SCALAR"
    },
    {
      "bufferView": 2,
      "byteOffset": 9513192,
      "componentType": 5126,
      "count": 65532,
      "max": [
        -0.33009132742881775,
        -9.916227340698242,
        10.154955863952637
      ],
      "min": [
        -8.660385131835938,
        -18.921838760375977,
        0.8249701261520386
      ],
      "type": "VEC3"
    },
    {
      "bufferView": 2,
      "byteOffset": 10299576,
      "componentType": 5126,
      "count": 65532,
      "max": [
        1.0,
        0.9998329877853394,
        0.9997764825820923
      ],
      "min": [
        -0.9999717473983765,
        -0.9999411106109619,
        -0.9999954700469971
      ],
      "type": "VEC3"
    },
    {
      "bufferView": 1,
      "byteOffset": 3171064,
      "componentType": 5126,
      "count": 65532,
      "max": [
        3.0,
        0.9757819771766663
      ],
      "min": [
        2.0,
        0.00014200000441633165
      ],
      "type": "VEC2"
    },
    {
      "bufferView": 0,
      "byteOffset": 7887876,
      "componentType": 5125,
      "count": 344295,
      "type": "SCALAR"
    },
    {
      "bufferView": 2,
      "byteOffset": 11085960,
      "componentType": 5126,
      "count": 20009,
      "max": [
        2.6036462783813477,
        -6.032291412353516,
        4.634256362915039
      ],
      "min": [
        -3.2013309001922607,
        -13.097663879394531,
        0.35729268193244934
      ],
      "type": "VEC3"
    },
    {
      "bufferView": 2,
      "byteOffset": 11326068,
      "componentType": 5126,
      "count": 20009,
      "max": [
        0.9999907612800598,
        0.9893937706947327,
        0.9999266266822815
      ],
      "min": [
        -0.9999790191650391,
        -0.9996668696403503,
        -0.9993520975112915
      ],
      "type": "VEC3"
    },
    {
      "bufferView": 1,
      "byteOffset": 3695320,
      "componentType": 5126,
      "count": 20009,
      "max": [
        2.9986050128936768,
        0.9352880120277405
      ],
      "min": [
        2.2225520610809326,
        0.0
      ],
      "type": "VEC2"
    },
    {
      "bufferView": 0,
      "byteOffset": 9265056,
      "componentType": 5125,
      "count": 106512,
      "type": "SCALAR"
    }
  ],
  "asset": {
    "extras": {
      "author": "Nikitos & 3130 (https://sketchfab.com/vrcityphoto)",
      "license": "CC-BY-4.0 (http://creativecommons.org/licenses/by/4.0/)",
      "source": "https://sketchfab.com/3d-models/girl-sitting-08b3796300c442aeb3c7a1bc38ab9f22",
      "title": "GIRL SITTING"
    },
    "generator": "Sketchfab-12.68.0",
    "version": "2.0"
  },
  "bufferViews": [
    {
      "buffer": 0,
      "byteLength": 9691104,
      "name": "floatBufferViews",
      "target": 34963
    },
    {
      "buffer": 0,
      "byteLength": 3855392,
      "byteOffset": 9691104,
      "byteStride": 8,
      "name": "floatBufferViews",
      "target": 34962
    },
    {
      "buffer": 0,
      "byteLength": 11566176,
      "byteOffset": 13546496,
      "byteStride": 12,
      "name": "floatBufferViews",
      "target": 34962
    }
  ],
  "buffers": [
    {
      "byteLength": 25112672,
      "uri": "scene.bin"
    }
  ],
  "extensionsUsed": [
    "KHR_materials_unlit"
  ],
  "images": [
    {
      "uri": "textures/GIRL_SITTING.1001_baseColor.jpeg"
    },
    {
      "uri": "textures/GIRL_SITTING.1002_baseColor.jpeg"
    },
    {
      "uri": "textures/GIRL_SITTING.1003_baseColor.jpeg"
    }
  ],
  "materials": [
    {
      "doubleSided": true,
      "extensions": {
        "KHR_materials_unlit": {}
      },
      "name": "GIRL_SITTING.1001",
      "pbrMetallicRoughness": {
        "baseColorTexture": {
          "index": 0
        },
        "metallicFactor": 0.0
      }
    },
    {
      "doubleSided": true,
      "extensions": {
        "KHR_materials_unlit": {}
      },
      "name": "GIRL_SITTING.1002",
      "pbrMetallicRoughness": {
        "baseColorTexture": {
          "index": 1
        },
        "metallicFactor": 0.0
      }
    },
    {
      "doubleSided": true,
      "extensions": {
        "KHR_materials_unlit": {}
      },
      "name": "GIRL_SITTING.1003",
      "pbrMetallicRoughness": {
        "baseColorTexture": {
          "index": 2
        },
        "metallicFactor": 0.0
      }
    }
  ],
  "meshes": [
    {
      "name": "Object_0",
      "primitives": [
        {
          "attributes": {
            "NORMAL": 1,
            "POSITION": 0,
            "TEXCOORD_0": 2
          },
          "indices": 3,
          "material": 0,
          "mode": 4
        }
      ]
    },
    {
      "name": "Object_1",
      "primitives": [
        {
          "attributes": {
            "NORMAL": 5,
            "POSITION": 4,
            "TEXCOORD_0": 6
          },
          "indices": 7,
          "material": 0,
          "mode": 4
        }
      ]
    },
    {
      "name": "Object_2",
      "primitives": [
        {
          "attributes": {
            "NORMAL": 9,
            "POSITION": 8,
            "TEXCOORD_0": 10
          },
          "indices": 11,
          "material": 0,
          "mode": 4
        }
      ]
    },
    {
      "name": "Object_3",
      "primitives": [
        {
          "attributes": {
            "NORMAL": 13,
            "POSITION": 12,
            "TEXCOORD_0": 14
          },
          "indices": 15,
          "material": 1,
          "mode": 4
        }
      ]
    },
    {
      "name": "Object_4",
      "primitives": [
        {
          "attributes": {
            "NORMAL": 17,
            "POSITION": 16,
            "TEXCOORD_0": 18
          },
          "indices": 19,
          "material": 1,
          "mode": 4
        }
      ]
    },
    {
      "name": "Object_5",
      "primitives": [
        {
          "attributes": {
            "NORMAL": 21,
            "POSITION": 20,
            "TEXCOORD_0": 22
          },
          "indices": 23,
          "material": 1,
          "mode": 4
        }
      ]
    },
    {
      "name": "Object_6",
      "primitives": [
        {
          "attributes": {
            "NORMAL": 25,
            "POSITION": 24,
            "TEXCOORD_0": 26
          },
          "indices": 27,
          "material": 2,
          "mode": 4
        }
      ]
    },
    {
      "name": "Object_7",
      "primitives": [
        {
          "attributes": {
            "NORMAL": 29,
            "POSITION": 28,
            "TEXCOORD_0": 30
          },
          "indices": 31,
          "material": 2,
          "mode": 4
        }
      ]
    },
    {
      "name": "Object_8",
      "primitives": [
        {
          "attributes": {
            "NORMAL": 33,
            "POSITION": 32,
            "TEXCOORD_0": 34
          },
          "indices": 35,
          "material": 2,
          "mode": 4
        }
      ]
    }
  ],
  "nodes": [
    {
      "children": [
        1
      ],
      "matrix": [
        0.9881548881530762,
        -0.15260358154773712,
        0.016187533736228908,
        0.0,
        -0.13307255506515503,
        -0.7995616197586061,
        0.5856559276580808,
        0.0,
        -0.07643026858568192,
        -0.5808728933334348,
        -0.8103981018066407,
        0.0,
        -1.3519514799118042,
        -3.5622215270996147,
        23.10805320739746,
        1.0
      ],
      "name": "Sketchfab_model"
    },
    {
      "children": [
        2,
        3,
        4,
        5,
        6,
        7,
        8,
        9,
        10
      ],
      "name": "GIRL SITTING.obj.cleaner.materialmerger.gles"
    },
    {
      "mesh": 0,
      "name": "Object_2"
    },
    {
      "mesh": 1,
      "name": "Object_3"
    },
    {
      "mesh": 2,
      "name": "Object_4"
    },
    {
      "mesh": 3,
      "name": "Object_5"
    },
    {
      "mesh": 4,
      "name": "Object_6"
    },
    {
      "mesh": 5,
      "name": "Object_7"
    },
    {
      "mesh": 6,
      "name": "Object_8"
    },
    {
      "mesh": 7,
      "name": "Object_9"
    },
    {
      "mesh": 8,
      "name": "Object_10"
    }
  ],
  "samplers": [
    {
      "magFilter": 9729,
      "minFilter": 9987,
      "wrapS": 10497,
      "wrapT": 10497
    }
  ],
  "scene": 0,
  "scenes": [
    {
      "name": "Sketchfab_Scene",
      "nodes": [
        0
      ]
    }
  ],
  "textures": [
    {
      "sampler": 0,
      "source": 0
    },
    {
      "sampler": 0,
      "source": 1
    },
    {
      "sampler": 0,
      "source": 2
    }
  ]
}
